<svg xmlns="http://www.w3.org/2000/svg" width="256" height="256"><path fill="#1976D2" fill-opacity=".016" fill-rule="evenodd" d="M0 128.004v128.004l128.25-.254 128.25-.254.254-127.75L257.008 0H0zm.485.496c0 70.4.119 99.053.265 63.672s.146-92.98 0-128S.485 58.1.485 128.5"/><path fill="#1976D2" fill-opacity=".542" fill-rule="evenodd" d="M239.5 3.729c-6.903 2.806-16.009 9.057-21.145 14.516-20.786 22.09-54.695 78.508-68.949 114.717l-4.906 12.462-.576-11.962c-1.056-21.924 2.469-79.881 6.584-108.242 1.946-13.407 1.894-14.818-.637-17.349-1.951-1.951-2.899-2.086-11.25-1.61-11.702.667-22.305 4.066-34.512 11.064C84.753 28.421 76.864 36.008 69.093 51 61.231 66.166 57.64 82.028 56 108.822c-2.033 33.205-2.278 35.854-3.027 32.678-6.049-25.636-10.31-54.776-11.856-81.062-1.323-22.515-2.985-24.856-24.625-34.688C9.531 22.587 3.246 20 2.525 20 .472 20 0 22.428 0 32.982c0 22.893 10.567 66.892 26.091 108.643 5.9 15.867 22.845 53.731 30.823 68.875 11.833 22.463 17.242 30.08 23.079 32.497 5.686 2.355 5.808 1.944 5.246-17.673-.376-13.096-.057-21.95 1.199-33.329 2.625-23.775 8.053-54.301 13.78-77.495 6.239-25.265 6.028-25.621 8.287 14 .878 15.4 2.731 37 4.118 48 3.001 23.807 8.798 57.18 10.741 61.829 2.794 6.687 12.085 14.671 17.073 14.671 2.287 0 4.179-3.771 5.52-11 1.558-8.401 9.395-32.47 13.507-41.483 13.41-29.388 45.526-66.996 78.645-92.095 10.556-8 15.118-13.779 16.734-21.205.565-2.594 1.196-18.442 1.402-35.217s.123-25.325-.185-19l-.56 11.5-1.321-13.17c-1.493-14.887-3.57-25.891-5.273-27.943-1.487-1.792-4.42-1.685-9.406.342M.382 33.5c.002 6.6.164 9.17.359 5.711.196-3.459.195-8.859-.003-12S.38 26.9.382 33.5"/><path fill="#1976D2" fill-opacity=".286" fill-rule="evenodd" d="M242.5 3.404C227.376 8.208 216.011 19.045 196.781 47c-16.753 24.354-39.128 65.847-47.924 88.873l-4.345 11.373-.821-4.373c-2.286-12.172 2.078-90.021 6.814-121.574 1.282-8.536 1.28-9.979-.016-11.956-2.026-3.092-7.15-3.833-16.313-2.359-9.002 1.447-11.063 2.394-17.442 8.014-10.57 9.314-12.298 16.57-11.431 47.995.8 28.961 5.253 94.41 7.744 113.804 2.56 19.928 7.605 49.969 9.651 57.466 3.182 11.658 18.503 23.415 20.713 15.895.268-.912 1.471-5.933 2.673-11.158 3.233-14.049 10.408-34.274 15.787-44.5 15.62-29.694 44.452-62.585 75.582-86.219 9.55-7.252 13.768-12.034 16.261-18.441 3.185-8.182 1.542-55.399-2.708-77.807-.843-4.446-3.333-10.245-4.279-9.966-.125.037-2.027.638-4.227 1.337M1.219 21.75C-.236 25.293.704 45.568 2.877 57.5c4.902 26.913 14.027 58.906 25.056 87.848 4.327 11.354 20.437 47.424 27.312 61.152 10.998 21.959 22.199 37.003 27.037 36.315 5.177-.736 2.07-13.322-11.062-44.815-8.563-20.535-11.557-28.791-14.142-39-1.184-4.675-2.56-9.85-3.058-11.5-.499-1.65-2.485-10.425-4.415-19.5-4.129-19.418-7.169-42.069-8.722-65-1.25-18.444-3.187-24.944-8.576-28.781C29.729 32.383 3.7 20 2.419 20c-.265 0-.805.788-1.2 1.75"/><path fill="#1976D2" fill-opacity=".452" fill-rule="evenodd" d="M142.976 27.083c-15.419 18.489-29.182 41.355-34.006 56.5l-2.256 7.082 2.185 34.418c1.201 18.929 3.065 41.392 4.143 49.917 1.824 14.437 7.064 47.036 8.842 55 .734 3.29.825 3.11 1.519-3 2.292-20.186 4.473-29.545 13.283-57l6.579-20.5-.197-24.5c-.153-19.172.377-31.35 2.439-56 1.449-17.325 3.22-35.775 3.936-41s1.235-9.586 1.155-9.691-3.51 3.843-7.622 8.774M1.437 21.102C.024 23.388.97 45.063 2.982 56.5c4.858 27.622 15.694 65.199 26.815 93 8.907 22.263 34.435 76.275 30.808 65.181-3.367-10.294-6.59-38.18-6.61-57.181-.005-5.335-.783-12.257-1.909-17-6.061-25.52-10.267-54.328-11.609-79.5-.823-15.442-1.699-19.041-5.769-23.694-4.255-4.865-31.944-18.351-33.271-16.204"/></svg>